<svg id="quote-marks" xmlns="http://www.w3.org/2000/svg" viewBox="0 0 228.33 173.96"><defs><style>.cls-1{fill:#ddd;}</style></defs><path class="cls-1" d="M107.28,54.6,87.92,21.32C29.3,44.07,0,80.47,0,126.91c0,43,21.63,68.37,59,68.37,27.91,0,48.05-17.07,48.05-43.09C107,128.57,88.11,113,61.35,113a52.8,52.8,0,0,0-9.83,1C53.85,87.19,72.57,68.05,107.28,54.6Z" transform="translate(0 -21.32)"/><path class="cls-1" d="M182.4,113a52.8,52.8,0,0,0-9.83,1c2.33-26.78,21-45.92,55.76-59.37L209,21.32c-58.62,22.75-87.92,59.15-87.92,105.59,0,43,21.63,68.37,59,68.37,27.9,0,48.05-17.07,48.05-43.09C228.08,128.57,209.16,113,182.4,113Z" transform="translate(0 -21.32)"/></svg>