<svg id="Layer_1" data-name="Layer 1" xmlns="http://www.w3.org/2000/svg" viewBox="0 0 512 448"><defs><style>.cls-1,.cls-2{fill:#e5e5e5;}.cls-1{opacity:0.4;isolation:isolate;}</style></defs><path class="cls-1" d="M464,256H384V192a64.06,64.06,0,0,1,64-64h8a23.94,23.94,0,0,0,24-23.88h0V56a23.94,23.94,0,0,0-23.88-24H448A160,160,0,0,0,288,192V432a48,48,0,0,0,48,48H464a48,48,0,0,0,48-48V304A48,48,0,0,0,464,256Z" transform="translate(0 -32)"/><path class="cls-2" d="M176,256H96V192a64.06,64.06,0,0,1,64-64h8a23.94,23.94,0,0,0,24-23.88h0V56a23.94,23.94,0,0,0-23.88-24H160A160,160,0,0,0,0,192V432a48,48,0,0,0,48,48H176a48,48,0,0,0,48-48V304A48,48,0,0,0,176,256Z" transform="translate(0 -32)"/></svg>